<?xml version="1.0" encoding="utf-8"?>
<!-- Generator: Adobe Illustrator 21.1.0, SVG Export Plug-In . SVG Version: 6.00 Build 0)  -->
<svg version="1.1" id="Layer_1" xmlns="http://www.w3.org/2000/svg" xmlns:xlink="http://www.w3.org/1999/xlink" x="0px" y="0px"
	 viewBox="0 0 170 60" style="enable-background:new 0 0 170 60;" xml:space="preserve">
<style type="text/css">
	.st0{fill:#A7A9AC;}
	.st1{fill:#FFFFFF;}
</style>
<g>
	<path class="st0" d="M13.7,6h22.6c1.4,1.1,2.7,2.5,3.7,4h-30C11.1,8.5,12.3,7.1,13.7,6L13.7,6z M7.1,18H43c-0.2-1.4-0.5-2.7-0.9-4
		h-34C7.6,15.3,7.3,16.6,7.1,18L7.1,18z M8.1,26h34c0.5-1.3,0.8-2.6,0.9-4H7.1C7.3,23.4,7.6,24.8,8.1,26L8.1,26z M13.7,34.1h22.6
		c1.4-1.1,2.7-2.5,3.7-4h-30C11.1,31.6,12.3,32.9,13.7,34.1L13.7,34.1z"/>
	<path class="st1" d="M7.7,6c3.1-2.5,7-4,11.3-4c4.3,0,8.2,1.5,11.3,4H7.7L7.7,6z M2,14h34c-0.5-1.4-1.2-2.8-2-4H4
		C3.2,11.2,2.6,12.6,2,14L2,14z M1,20c0,0.7,0,1.3,0.1,2h35.8c0.1-0.7,0.1-1.3,0.1-2c0-0.7,0-1.3-0.1-2H1.1C1,18.7,1,19.4,1,20L1,20
		z M4,30h30c0.8-1.2,1.5-2.6,2-4H2C2.6,27.5,3.2,28.8,4,30L4,30z M7.7,34.1c3.1,2.5,7,4,11.3,4c4.3,0,8.2-1.5,11.3-4H7.7L7.7,34.1z"
		/>
	<path class="st1" d="M65.2,14.2c-1.1-1-2.6-1.6-4.1-1.6c-1.1,0-2.7,0.7-2.7,2c0,1.4,1.7,1.9,2.8,2.3l1.6,0.5c3.4,1,5.9,2.7,5.9,6.6
		c0,2.4-0.6,4.9-2.5,6.5c-1.9,1.6-4.4,2.3-6.8,2.3c-3,0-6-1-8.5-2.7l2.7-5c1.6,1.4,3.4,2.5,5.6,2.5c1.5,0,3-0.7,3-2.4
		c0-1.8-2.5-2.4-3.8-2.7c-3.9-1.1-6.5-2.1-6.5-6.8c0-4.9,3.5-8.1,8.3-8.1c2.4,0,5.4,0.8,7.5,2L65.2,14.2L65.2,14.2z M77.6,32.1h-6.3
		V8h6.3V32.1L77.6,32.1z M91.5,22.6L97.3,8h6.8L93.8,32.1H89L78.9,8h6.8L91.5,22.6L91.5,22.6z M111.6,13.3v4h7.1v5.3h-7.1v4.2h7.4
		v5.3h-13.7V8H119v5.3H111.6L111.6,13.3z M139.8,16.1c-1.3-1.7-3.4-2.7-5.5-2.7c-3.8,0-6.4,2.9-6.4,6.7c0,3.8,2.6,6.6,6.5,6.6
		c2,0,4.1-1,5.4-2.6v7.5c-2.1,0.6-3.6,1.1-5.5,1.1c-3.4,0-6.5-1.3-9-3.5c-2.6-2.4-3.9-5.5-3.9-9.1c0-3.3,1.2-6.5,3.5-8.8
		c2.4-2.4,5.8-3.9,9.2-3.9c2,0,3.9,0.4,5.7,1.2V16.1L139.8,16.1z M168.7,19.6c0,7.8-5.6,13.3-13.3,13.3c-7.7,0-13.3-5.5-13.3-13.3
		c0-7.3,6.4-12.4,13.3-12.4C162.3,7.2,168.7,12.3,168.7,19.6L168.7,19.6z M148.6,19.6c0,4.2,3.1,7.2,6.8,7.2c3.7,0,6.8-3,6.8-7.2
		c0-3.3-3.1-6.4-6.8-6.4C151.7,13.3,148.6,16.3,148.6,19.6L148.6,19.6z"/>
	<path class="st1" d="M118.9,43.2h-2.3l-1.8-2.7h0v2.7H113v-7.1h2.8c1.4,0,2.5,0.7,2.5,2.2c0,1-0.5,1.8-1.6,2L118.9,43.2L118.9,43.2
		z M114.8,39.3h0.2c0.6,0,1.3-0.1,1.3-0.9c0-0.8-0.7-0.9-1.3-0.9h-0.2V39.3L114.8,39.3z M127.7,39.5c0,2.3-1.7,3.9-3.9,3.9
		c-2.3,0-3.9-1.6-3.9-3.9c0-2.2,1.9-3.7,3.9-3.7C125.9,35.8,127.7,37.3,127.7,39.5L127.7,39.5z M121.8,39.5c0,1.2,0.9,2.1,2,2.1
		c1.1,0,2-0.9,2-2.1c0-1-0.9-1.9-2-1.9C122.7,37.6,121.8,38.5,121.8,39.5L121.8,39.5z M130.2,36.1h1.8l1.4,3.8l1.5-3.8h1.8l1.1,7.1
		h-1.9l-0.5-4.1h0l-1.7,4.1h-0.7l-1.6-4.1h0l-0.6,4.1H129L130.2,36.1L130.2,36.1z M141.3,42l-0.5,1.2h-2l2.7-7.1h2l2.7,7.1h-2
		l-0.5-1.2H141.3L141.3,42z M142.6,38.3L142.6,38.3l-0.8,2.3h1.5L142.6,38.3L142.6,38.3z M147.7,36.1h1.9l3.4,4.4h0v-4.4h1.9v7.1
		h-1.9l-3.4-4.4h0v4.4h-1.9V36.1L147.7,36.1z M158.6,43.2h-1.9v-7.1h1.9V43.2L158.6,43.2z M162.5,42l-0.5,1.2h-2l2.7-7.1h2l2.7,7.1
		h-2L165,42H162.5L162.5,42z M163.8,38.3L163.8,38.3l-0.8,2.3h1.5L163.8,38.3L163.8,38.3z"/>
	<path class="st1" d="M80.2,51.8c-0.3-0.4-0.6-0.6-1.1-0.8c-0.4-0.2-0.9-0.3-1.4-0.3c-0.5,0-1,0.1-1.4,0.2c-0.4,0.1-0.8,0.4-1.1,0.6
		s-0.5,0.6-0.7,0.9c-0.2,0.4-0.2,0.7-0.2,1.1c0,0.4,0.1,0.8,0.4,1.2c0.3,0.4,0.8,0.6,1.5,0.8l0.7,0.2c0.3,0.1,0.5,0.2,0.7,0.3
		c0.2,0.1,0.2,0.4,0.2,0.7c0,0.2,0,0.3-0.1,0.5c-0.1,0.1-0.2,0.3-0.4,0.4c-0.2,0.1-0.3,0.2-0.5,0.3c-0.2,0.1-0.4,0.1-0.7,0.1
		c-0.4,0-0.8-0.1-1.1-0.2c-0.3-0.1-0.6-0.3-0.8-0.6l-1.2,1c0.4,0.4,0.8,0.7,1.2,0.9c0.4,0.2,1,0.3,1.7,0.3c0.4,0,0.9-0.1,1.3-0.2
		c0.4-0.1,0.8-0.3,1.1-0.5c0.3-0.2,0.6-0.5,0.8-0.9c0.2-0.3,0.3-0.8,0.3-1.2c0-0.3,0-0.6-0.1-0.8c-0.1-0.2-0.2-0.4-0.3-0.6
		c-0.2-0.2-0.4-0.3-0.6-0.5c-0.2-0.1-0.5-0.2-0.9-0.3l-0.7-0.2c-0.1,0-0.2-0.1-0.3-0.1c-0.1,0-0.2-0.1-0.3-0.2
		c-0.1-0.1-0.2-0.1-0.2-0.2C76,53.7,76,53.6,76,53.5c0-0.2,0-0.3,0.1-0.5c0.1-0.2,0.2-0.3,0.3-0.4c0.1-0.1,0.3-0.2,0.5-0.3
		c0.2-0.1,0.4-0.1,0.7-0.1c0.3,0,0.6,0,0.9,0.1c0.2,0.1,0.5,0.3,0.6,0.5L80.2,51.8L80.2,51.8z"/>
	<path class="st1" d="M85.8,55.1c0-0.4-0.1-0.7-0.2-1c-0.1-0.3-0.3-0.5-0.5-0.6c-0.2-0.2-0.4-0.3-0.7-0.4c-0.2-0.1-0.5-0.1-0.7-0.1
		c-0.4,0-0.8,0.1-1.1,0.2c-0.3,0.1-0.6,0.3-0.8,0.5c-0.3,0.3-0.5,0.6-0.7,1c-0.2,0.4-0.3,0.9-0.4,1.5c0,0.1-0.1,0.3-0.1,0.5
		c0,0.2,0,0.4,0,0.6c0,0.4,0.1,0.7,0.2,1c0.1,0.3,0.3,0.5,0.5,0.6c0.2,0.2,0.4,0.3,0.7,0.4c0.2,0.1,0.5,0.1,0.7,0.1
		c0.4,0,0.8-0.1,1.1-0.2c0.3-0.1,0.6-0.3,0.8-0.5c0.1-0.1,0.3-0.3,0.4-0.4c0.1-0.2,0.2-0.3,0.3-0.5c0.1-0.2,0.2-0.4,0.2-0.7
		c0.1-0.2,0.1-0.5,0.2-0.9c0-0.1,0-0.3,0.1-0.5C85.8,55.5,85.8,55.3,85.8,55.1L85.8,55.1z M84.3,55.3c0,0.1,0,0.2,0,0.3
		c0,0.1-0.1,0.4-0.1,0.6c-0.1,0.4-0.2,0.7-0.3,1c-0.1,0.3-0.2,0.5-0.4,0.6c-0.1,0.1-0.2,0.2-0.3,0.2c-0.1,0.1-0.3,0.1-0.4,0.1
		c-0.2,0-0.4-0.1-0.6-0.2c-0.1-0.1-0.2-0.4-0.2-0.7c0-0.1,0-0.2,0-0.3c0-0.2,0.1-0.4,0.1-0.6c0.1-0.4,0.2-0.7,0.3-1s0.2-0.4,0.4-0.6
		c0.2-0.2,0.5-0.3,0.8-0.3c0.2,0,0.4,0.1,0.6,0.2C84.2,54.8,84.3,55,84.3,55.3L84.3,55.3z"/>
	<path class="st1" d="M90.9,50.8h-0.9c-0.6,0-1,0.1-1.4,0.4c-0.3,0.3-0.6,0.7-0.7,1.3l-0.2,0.9h-0.6L87,54.5h0.6l-1,4.9h1.5l1-4.9
		h1.1l0.2-1.1h-1.1l0.1-0.7c0.1-0.4,0.3-0.6,0.7-0.6h0.5L90.9,50.8L90.9,50.8z"/>
	<path class="st1" d="M94.2,53.3h-1l0.4-1.8h-1.5l-0.4,1.8h-0.6l-0.2,1.2h0.6l-0.6,3.1c0,0.1,0,0.1,0,0.2c0,0.1,0,0.2,0,0.3
		c0,0.4,0.1,0.8,0.4,1c0.3,0.2,0.6,0.4,1.1,0.4h0.8l0.3-1.2h-0.5c-0.3,0-0.5-0.1-0.5-0.4c0,0,0-0.1,0-0.1c0,0,0-0.1,0-0.1l0.6-3.1h1
		L94.2,53.3L94.2,53.3z"/>
	<path class="st1" d="M102.4,53.9c-0.2-0.2-0.4-0.4-0.7-0.6c-0.3-0.2-0.7-0.3-1.1-0.3c-0.3,0-0.6,0-1,0.1c-0.3,0.1-0.6,0.3-0.9,0.5
		c-0.3,0.2-0.5,0.6-0.8,1c-0.2,0.4-0.4,0.9-0.5,1.6c-0.1,0.3-0.1,0.7-0.1,1c0,0.4,0.1,0.7,0.2,1c0.1,0.3,0.3,0.5,0.5,0.7
		c0.2,0.2,0.4,0.3,0.7,0.4c0.3,0.1,0.6,0.1,0.9,0.1c0.4,0,0.8-0.1,1.1-0.2s0.7-0.3,0.9-0.6l-0.8-1.1c-0.2,0.2-0.4,0.3-0.5,0.4
		c-0.2,0.1-0.4,0.1-0.6,0.1c-0.3,0-0.5-0.1-0.7-0.3c-0.2-0.2-0.2-0.4-0.2-0.8c0-0.1,0-0.3,0-0.4c0-0.1,0-0.3,0.1-0.4
		c0.1-0.3,0.1-0.6,0.3-0.8c0.1-0.3,0.2-0.5,0.4-0.6c0.3-0.3,0.6-0.4,0.9-0.4c0.2,0,0.3,0,0.5,0.1c0.1,0.1,0.3,0.2,0.4,0.4
		L102.4,53.9L102.4,53.9z"/>
	<path class="st1" d="M107.9,54.8c0-0.3-0.1-0.6-0.2-0.8c-0.1-0.2-0.3-0.4-0.5-0.5c-0.2-0.1-0.4-0.2-0.7-0.3
		c-0.3-0.1-0.5-0.1-0.8-0.1c-0.6,0-1.1,0.1-1.4,0.2c-0.4,0.2-0.7,0.4-0.9,0.6l0.8,1c0.2-0.2,0.3-0.3,0.6-0.4
		c0.2-0.1,0.5-0.2,0.8-0.2c0.3,0,0.5,0.1,0.7,0.2c0.2,0.1,0.2,0.3,0.2,0.5c0,0.1,0,0.2,0,0.3l-0.1,0.4h-1.5c-0.4,0-0.7,0.1-1,0.2
		c-0.3,0.1-0.6,0.3-0.8,0.5c-0.2,0.2-0.3,0.4-0.4,0.6c-0.1,0.2-0.1,0.5-0.1,0.8c0,0.5,0.2,0.9,0.5,1.2c0.3,0.3,0.8,0.5,1.3,0.5
		c0.3,0,0.6-0.1,0.9-0.2c0.2-0.1,0.5-0.3,0.6-0.4l-0.1,0.6h1.4l0.8-4C107.9,55.2,107.9,55,107.9,54.8L107.9,54.8z M106.1,56.7
		l-0.1,0.4c0,0.2-0.1,0.3-0.1,0.4c-0.1,0.1-0.1,0.3-0.2,0.3c-0.1,0.1-0.3,0.2-0.4,0.3c-0.2,0.1-0.4,0.1-0.6,0.1
		c-0.3,0-0.5-0.1-0.6-0.2c-0.1-0.1-0.2-0.3-0.2-0.4c0-0.3,0.1-0.5,0.3-0.7c0.2-0.2,0.4-0.3,0.8-0.3H106.1L106.1,56.7z"/>
	<path class="st1" d="M114.1,53.7c-0.2-0.2-0.4-0.3-0.6-0.4c-0.2-0.1-0.5-0.1-0.8-0.1c-0.3,0-0.6,0.1-0.9,0.2
		c-0.3,0.1-0.5,0.3-0.7,0.5l0.1-0.6h-1.4l-1.2,6.3h1.5l0.8-3.8c0.1-0.4,0.2-0.6,0.5-0.9c0.2-0.2,0.5-0.3,0.8-0.3
		c0.2,0,0.3,0,0.4,0.1c0.1,0.1,0.2,0.2,0.2,0.2L114.1,53.7L114.1,53.7z"/>
	<path class="st1" d="M119.4,55.3c0-0.3-0.1-0.6-0.2-0.9c-0.1-0.3-0.3-0.5-0.4-0.7c-0.2-0.2-0.4-0.3-0.7-0.5
		c-0.3-0.1-0.6-0.2-0.9-0.2c-0.5,0-1,0.1-1.4,0.4c-0.4,0.2-0.7,0.6-1,1c-0.3,0.4-0.5,0.8-0.6,1.3c-0.1,0.5-0.2,1-0.2,1.5
		c0,0.4,0.1,0.8,0.2,1c0.1,0.3,0.3,0.5,0.5,0.7c0.2,0.2,0.5,0.3,0.7,0.4c0.3,0.1,0.5,0.1,0.8,0.1c0.5,0,0.9-0.1,1.3-0.2
		c0.4-0.2,0.8-0.4,1.1-0.7l-0.8-1c-0.2,0.2-0.4,0.4-0.7,0.5c-0.2,0.1-0.5,0.2-0.8,0.2c-0.4,0-0.6-0.1-0.8-0.3
		c-0.2-0.2-0.3-0.4-0.3-0.8c0-0.1,0-0.2,0-0.2c0-0.1,0-0.1,0-0.2h3.7c0.1-0.2,0.1-0.5,0.1-0.7C119.4,55.7,119.4,55.5,119.4,55.3
		L119.4,55.3z M118,55.3c0,0.1,0,0.3,0,0.4h-2.3c0.1-0.5,0.3-0.9,0.6-1.1c0.3-0.2,0.5-0.3,0.9-0.3c0.3,0,0.5,0.1,0.6,0.3
		C117.9,54.7,118,55,118,55.3L118,55.3z"/>
	<path class="st1" d="M128.1,53.9c-0.2-0.2-0.4-0.4-0.7-0.6c-0.3-0.2-0.7-0.3-1.1-0.3c-0.3,0-0.6,0-1,0.1c-0.3,0.1-0.6,0.3-0.9,0.5
		c-0.3,0.2-0.5,0.6-0.8,1c-0.2,0.4-0.4,0.9-0.5,1.6c-0.1,0.3-0.1,0.7-0.1,1c0,0.4,0.1,0.7,0.2,1c0.1,0.3,0.3,0.5,0.5,0.7
		c0.2,0.2,0.4,0.3,0.7,0.4c0.3,0.1,0.6,0.1,0.9,0.1c0.4,0,0.8-0.1,1.1-0.2c0.4-0.1,0.7-0.3,0.9-0.6l-0.8-1.1
		c-0.2,0.2-0.4,0.3-0.5,0.4c-0.2,0.1-0.4,0.1-0.6,0.1c-0.3,0-0.5-0.1-0.7-0.3c-0.2-0.2-0.2-0.4-0.2-0.8c0-0.1,0-0.3,0-0.4
		c0-0.1,0-0.3,0.1-0.4c0.1-0.3,0.1-0.6,0.3-0.8c0.1-0.3,0.2-0.5,0.4-0.6c0.3-0.3,0.6-0.4,0.9-0.4c0.2,0,0.3,0,0.5,0.1
		c0.1,0.1,0.3,0.2,0.4,0.4L128.1,53.9L128.1,53.9z"/>
	<path class="st1" d="M133.7,55.1c0-0.4-0.1-0.7-0.2-1c-0.1-0.3-0.3-0.5-0.5-0.6c-0.2-0.2-0.4-0.3-0.7-0.4c-0.2-0.1-0.5-0.1-0.7-0.1
		c-0.4,0-0.8,0.1-1.1,0.2c-0.3,0.1-0.6,0.3-0.8,0.5c-0.3,0.3-0.5,0.6-0.7,1c-0.2,0.4-0.3,0.9-0.4,1.5c0,0.1-0.1,0.3-0.1,0.5
		c0,0.2,0,0.4,0,0.6c0,0.4,0.1,0.7,0.2,1c0.1,0.3,0.3,0.5,0.5,0.6c0.2,0.2,0.4,0.3,0.7,0.4c0.2,0.1,0.5,0.1,0.7,0.1
		c0.4,0,0.8-0.1,1.1-0.2c0.3-0.1,0.6-0.3,0.8-0.5c0.1-0.1,0.3-0.3,0.4-0.4c0.1-0.2,0.2-0.3,0.3-0.5c0.1-0.2,0.2-0.4,0.2-0.7
		c0.1-0.2,0.1-0.5,0.2-0.9c0-0.1,0-0.3,0.1-0.5C133.7,55.5,133.7,55.3,133.7,55.1L133.7,55.1z M132.2,55.3c0,0.1,0,0.2,0,0.3
		c0,0.1-0.1,0.4-0.1,0.6c-0.1,0.4-0.2,0.7-0.3,1c-0.1,0.3-0.2,0.5-0.4,0.6c-0.1,0.1-0.2,0.2-0.3,0.2c-0.1,0.1-0.3,0.1-0.4,0.1
		c-0.2,0-0.4-0.1-0.6-0.2c-0.1-0.1-0.2-0.4-0.2-0.7c0-0.1,0-0.2,0-0.3c0-0.2,0.1-0.4,0.1-0.6c0.1-0.4,0.2-0.7,0.3-1
		c0.1-0.2,0.2-0.4,0.4-0.6c0.2-0.2,0.5-0.3,0.8-0.3c0.2,0,0.4,0.1,0.6,0.2C132.2,54.8,132.2,55,132.2,55.3L132.2,55.3z"/>
	<path class="st1" d="M140.2,54.8c0-0.3-0.1-0.6-0.1-0.8c-0.1-0.2-0.2-0.4-0.4-0.5c-0.2-0.1-0.3-0.2-0.5-0.3
		c-0.2-0.1-0.4-0.1-0.6-0.1c-0.3,0-0.6,0.1-0.9,0.2c-0.3,0.1-0.5,0.3-0.7,0.5l0.1-0.6h-1.4l-1.2,6.3h1.5l0.8-3.8
		c0-0.2,0.1-0.4,0.2-0.6c0.1-0.2,0.2-0.3,0.3-0.4c0.1-0.1,0.3-0.1,0.4-0.2c0.1,0,0.2,0,0.3,0c0.2,0,0.4,0.1,0.5,0.2
		c0.2,0.1,0.2,0.3,0.2,0.6c0,0.1,0,0.1,0,0.2c0,0.1,0,0.1,0,0.2l-0.8,3.8h1.5l0.8-3.9c0-0.1,0-0.2,0.1-0.3
		C140.2,55,140.2,54.9,140.2,54.8L140.2,54.8z"/>
	<path class="st1" d="M144.8,53.3h-1l0.4-1.8h-1.5l-0.4,1.8h-0.6l-0.2,1.2h0.6l-0.6,3.1c0,0.1,0,0.1,0,0.2c0,0.1,0,0.2,0,0.3
		c0,0.4,0.1,0.8,0.4,1c0.3,0.2,0.6,0.4,1.1,0.4h0.8l0.3-1.2h-0.5c-0.3,0-0.5-0.1-0.5-0.4c0,0,0-0.1,0-0.1c0,0,0-0.1,0-0.1l0.6-3.1h1
		L144.8,53.3L144.8,53.3z"/>
	<path class="st1" d="M150.6,55.3c0-0.3-0.1-0.6-0.2-0.9c-0.1-0.3-0.3-0.5-0.4-0.7c-0.2-0.2-0.4-0.3-0.7-0.5
		c-0.3-0.1-0.6-0.2-0.9-0.2c-0.5,0-1,0.1-1.4,0.4c-0.4,0.2-0.7,0.6-1,1c-0.3,0.4-0.5,0.8-0.6,1.3c-0.1,0.5-0.2,1-0.2,1.5
		c0,0.4,0.1,0.8,0.2,1c0.1,0.3,0.3,0.5,0.5,0.7c0.2,0.2,0.5,0.3,0.7,0.4c0.3,0.1,0.5,0.1,0.8,0.1c0.5,0,0.9-0.1,1.3-0.2
		c0.4-0.2,0.8-0.4,1.1-0.7l-0.8-1c-0.2,0.2-0.4,0.4-0.7,0.5c-0.2,0.1-0.5,0.2-0.8,0.2c-0.4,0-0.6-0.1-0.8-0.3
		c-0.2-0.2-0.3-0.4-0.3-0.8c0-0.1,0-0.2,0-0.2c0-0.1,0-0.1,0-0.2h3.7c0.1-0.2,0.1-0.5,0.1-0.7C150.6,55.7,150.6,55.5,150.6,55.3
		L150.6,55.3z M149.2,55.3c0,0.1,0,0.3,0,0.4h-2.3c0.1-0.5,0.3-0.9,0.6-1.1c0.3-0.2,0.5-0.3,0.9-0.3c0.3,0,0.5,0.1,0.6,0.3
		C149.1,54.7,149.2,55,149.2,55.3L149.2,55.3z"/>
	<path class="st1" d="M156.7,54.8c0-0.3-0.1-0.6-0.2-0.8c-0.1-0.2-0.3-0.4-0.5-0.5c-0.2-0.1-0.4-0.2-0.7-0.3
		c-0.3-0.1-0.5-0.1-0.8-0.1c-0.6,0-1.1,0.1-1.4,0.2c-0.4,0.2-0.7,0.4-0.9,0.6l0.8,1c0.2-0.2,0.3-0.3,0.6-0.4
		c0.2-0.1,0.5-0.2,0.8-0.2c0.3,0,0.5,0.1,0.7,0.2c0.2,0.1,0.2,0.3,0.2,0.5c0,0.1,0,0.2,0,0.3l-0.1,0.4h-1.5c-0.4,0-0.7,0.1-1,0.2
		c-0.3,0.1-0.6,0.3-0.8,0.5c-0.2,0.2-0.3,0.4-0.4,0.6c-0.1,0.2-0.1,0.5-0.1,0.8c0,0.5,0.2,0.9,0.5,1.2c0.3,0.3,0.8,0.5,1.3,0.5
		c0.3,0,0.6-0.1,0.9-0.2c0.2-0.1,0.5-0.3,0.6-0.4l-0.1,0.6h1.4l0.8-4C156.6,55.2,156.7,55,156.7,54.8L156.7,54.8z M154.8,56.7
		l-0.1,0.4c0,0.2-0.1,0.3-0.1,0.4c-0.1,0.1-0.1,0.3-0.2,0.3c-0.1,0.1-0.3,0.2-0.4,0.3c-0.2,0.1-0.4,0.1-0.6,0.1
		c-0.3,0-0.5-0.1-0.6-0.2c-0.1-0.1-0.2-0.3-0.2-0.4c0-0.3,0.1-0.5,0.3-0.7c0.2-0.2,0.4-0.3,0.8-0.3H154.8L154.8,56.7z"/>
	<polygon class="st1" points="162.8,53.1 158.3,53.1 158,54.5 160.5,54.5 157.2,58.3 157,59.4 161.6,59.4 161.9,58.1 159.2,58.1 
		162.5,54.3 162.8,53.1 	"/>
	<path class="st1" d="M168.3,54.8c0-0.3-0.1-0.6-0.2-0.8c-0.1-0.2-0.3-0.4-0.5-0.5c-0.2-0.1-0.4-0.2-0.7-0.3
		c-0.3-0.1-0.5-0.1-0.8-0.1c-0.6,0-1.1,0.1-1.4,0.2c-0.4,0.2-0.7,0.4-0.9,0.6l0.8,1c0.2-0.2,0.3-0.3,0.6-0.4
		c0.2-0.1,0.5-0.2,0.8-0.2c0.3,0,0.5,0.1,0.7,0.2c0.2,0.1,0.2,0.3,0.2,0.5c0,0.1,0,0.2,0,0.3l-0.1,0.4h-1.5c-0.4,0-0.7,0.1-1,0.2
		c-0.3,0.1-0.6,0.3-0.8,0.5c-0.2,0.2-0.3,0.4-0.4,0.6c-0.1,0.2-0.1,0.5-0.1,0.8c0,0.5,0.2,0.9,0.5,1.2c0.3,0.3,0.8,0.5,1.3,0.5
		c0.3,0,0.6-0.1,0.9-0.2c0.2-0.1,0.5-0.3,0.6-0.4l-0.1,0.6h1.4l0.8-4C168.3,55.2,168.3,55,168.3,54.8L168.3,54.8z M166.5,56.7
		l-0.1,0.4c0,0.2-0.1,0.3-0.1,0.4c-0.1,0.1-0.1,0.3-0.2,0.3c-0.1,0.1-0.3,0.2-0.4,0.3c-0.2,0.1-0.4,0.1-0.6,0.1
		c-0.3,0-0.5-0.1-0.6-0.2c-0.1-0.1-0.2-0.3-0.2-0.4c0-0.3,0.1-0.5,0.3-0.7c0.2-0.2,0.4-0.3,0.8-0.3H166.5L166.5,56.7z M168.7,50.5
		h-1c-0.1,0.3-0.2,0.5-0.4,0.6c-0.2,0.1-0.4,0.2-0.6,0.2c-0.2,0-0.4-0.1-0.6-0.2c-0.1-0.1-0.2-0.3-0.2-0.6h-1c0,0,0,0.1,0,0.2
		c0,0.1,0,0.1,0,0.2c0,0.2,0,0.4,0.1,0.5c0.1,0.2,0.2,0.3,0.3,0.5c0.1,0.1,0.3,0.2,0.5,0.3c0.2,0.1,0.4,0.1,0.7,0.1
		c0.6,0,1-0.1,1.4-0.4C168.4,51.6,168.6,51.1,168.7,50.5L168.7,50.5z"/>
</g>
</svg>
